<?xml version="1.0" standalone="no"?>
<!DOCTYPE svg PUBLIC "-//W3C//DTD SVG 20010904//EN"
 "http://www.w3.org/TR/2001/REC-SVG-20010904/DTD/svg10.dtd">
<svg version="1.0" xmlns="http://www.w3.org/2000/svg"
 width="24.000000pt" height="24.000000pt" viewBox="0 0 24.000000 24.000000"
 preserveAspectRatio="xMidYMid meet">

<g transform="translate(0.000000,24.000000) scale(0.100000,-0.100000)"
fill="#000000" stroke="none">
<path d="M0 120 l0 -120 120 0 120 0 0 120 0 120 -120 0 -120 0 0 -120z m153
-21 c21 0 21 -1 -3 -11 l-25 -11 25 -7 25 -8 -27 -1 -28 -1 2 73 c1 62 2 65 5
20 4 -47 7 -53 26 -54z m-113 -29 c5 0 11 8 13 18 4 13 5 11 6 -5 1 -17 -5
-23 -19 -23 -14 0 -20 6 -19 23 1 16 2 18 6 5 2 -10 8 -18 13 -18z m69 8 c-1
-17 -2 -19 -6 -5 -2 9 -8 17 -13 17 -5 0 -11 -8 -13 -17 -4 -14 -5 -12 -6 5
-1 16 5 22 19 22 14 0 20 -6 19 -22z m105 14 c-6 -4 -13 -14 -16 -22 -3 -10
-6 -8 -10 8 -5 18 -2 22 15 22 13 0 17 -3 11 -8z"/>
</g>
</svg>
