<svg id="svg" version="1.1" xmlns="http://www.w3.org/2000/svg" xmlns:xlink="http://www.w3.org/1999/xlink" width="400" height="400" viewBox="0, 0, 400,400"><g id="svgg"><path id="path0" d="M30.400 261.908 L 30.400 287.015 34.307 290.908 L 38.214 294.800 41.507 294.800 L 44.800 294.800 44.800 265.800 L 44.800 236.800 37.600 236.800 L 30.400 236.800 30.400 261.908 M85.200 258.400 L 85.200 280.000 67.200 280.000 L 49.200 280.000 49.200 287.400 L 49.200 294.800 74.600 294.800 L 100.000 294.800 100.000 265.800 L 100.000 236.800 92.600 236.800 L 85.200 236.800 85.200 258.400 M113.200 265.800 L 113.200 294.800 120.600 294.800 L 128.000 294.800 128.000 273.000 L 128.000 251.200 146.000 251.200 L 164.000 251.200 164.000 244.000 L 164.000 236.800 138.600 236.800 L 113.200 236.800 113.200 265.800 M168.400 265.800 L 168.400 294.800 175.600 294.800 L 182.800 294.800 182.800 269.692 L 182.800 244.585 178.893 240.692 L 174.986 236.800 171.693 236.800 L 168.400 236.800 168.400 265.800 M196.000 244.000 L 196.000 251.200 203.400 251.200 L 210.800 251.200 210.800 244.000 L 210.800 236.800 203.400 236.800 L 196.000 236.800 196.000 244.000 M224.000 255.000 L 224.000 273.200 250.200 273.200 L 276.400 273.200 276.400 276.600 L 276.400 280.000 250.200 280.000 L 224.000 280.000 224.000 287.400 L 224.000 294.800 257.600 294.800 L 291.200 294.800 291.200 276.600 L 291.200 258.400 265.000 258.400 L 238.800 258.400 238.800 254.800 L 238.800 251.200 265.000 251.200 L 291.200 251.200 291.200 244.000 L 291.200 236.800 257.600 236.800 L 224.000 236.800 224.000 255.000 M304.400 244.000 L 304.400 251.200 311.600 251.200 L 318.800 251.200 318.800 244.000 L 318.800 236.800 311.600 236.800 L 304.400 236.800 304.400 244.000 M323.200 265.800 L 323.200 294.800 330.600 294.800 L 338.000 294.800 338.000 273.000 L 338.000 251.200 354.600 251.200 L 371.200 251.200 371.200 244.000 L 371.200 236.800 347.200 236.800 L 323.200 236.800 323.200 265.800 M196.000 275.200 L 196.000 294.800 203.400 294.800 L 210.800 294.800 210.800 275.200 L 210.800 255.600 203.400 255.600 L 196.000 255.600 196.000 275.200 " stroke="none" fill="#fafafa" fill-rule="evenodd"></path><path id="path1" d="M201.635 27.615 C 199.969 32.536,200.576 32.293,195.699 29.990 C 193.445 28.925,191.600 28.120,191.600 28.200 C 191.600 28.280,192.410 30.010,193.400 32.044 C 195.728 36.826,195.867 36.475,190.936 38.232 C 187.664 39.398,186.850 39.825,187.436 40.069 C 187.856 40.244,189.775 40.947,191.700 41.631 C 195.797 43.088,195.682 42.691,193.400 47.507 C 192.410 49.597,191.600 51.367,191.600 51.441 C 191.600 51.515,193.434 50.679,195.675 49.583 C 200.364 47.290,199.954 47.136,201.586 51.800 C 203.256 56.574,203.225 56.571,204.773 52.094 C 205.514 49.952,206.241 48.061,206.388 47.892 C 206.536 47.722,208.412 48.414,210.556 49.430 C 215.302 51.678,215.202 51.768,212.999 47.241 C 212.009 45.208,211.200 43.397,211.200 43.216 C 211.200 43.035,213.105 42.208,215.434 41.378 C 218.060 40.443,219.465 39.758,219.134 39.574 C 218.840 39.412,216.935 38.698,214.900 37.989 C 212.865 37.280,211.200 36.566,211.200 36.403 C 211.200 36.240,212.010 34.397,213.000 32.307 C 213.990 30.217,214.800 28.392,214.800 28.250 C 214.800 28.109,212.975 28.909,210.743 30.028 C 206.076 32.370,206.576 32.598,204.747 27.300 C 203.176 22.749,203.285 22.738,201.635 27.615 M196.000 145.200 L 196.000 226.800 203.400 226.800 L 210.800 226.800 210.800 145.200 L 210.800 63.600 203.400 63.600 L 196.000 63.600 196.000 145.200 M77.731 309.762 C 73.986 311.453,74.907 315.273,79.737 318.085 C 81.993 319.398,82.439 321.374,80.584 321.840 C 79.497 322.113,78.000 321.132,78.000 320.148 C 78.000 319.682,75.822 319.759,75.246 320.245 C 74.206 321.121,77.727 324.396,79.713 324.399 C 85.552 324.406,86.235 318.626,80.775 315.420 C 78.532 314.104,77.979 313.189,78.816 312.181 C 79.539 311.310,80.703 311.480,81.411 312.560 C 82.066 313.561,83.957 313.528,84.297 312.510 C 84.938 310.585,80.252 308.624,77.731 309.762 M168.200 309.578 C 165.526 310.672,164.470 320.520,166.764 322.962 C 168.683 325.004,173.022 324.679,174.198 322.405 C 175.031 320.793,175.041 312.827,174.212 311.224 C 173.337 309.531,170.327 308.708,168.200 309.578 M244.590 309.737 C 241.572 311.105,241.731 314.968,244.884 316.844 C 248.161 318.794,249.028 319.781,248.494 320.954 C 247.812 322.449,246.181 322.380,245.284 320.817 C 244.732 319.856,244.416 319.678,243.602 319.869 C 240.367 320.626,243.951 324.616,247.547 324.260 C 252.862 323.735,252.841 318.214,247.514 315.314 C 245.491 314.214,244.832 313.125,245.616 312.181 C 246.341 311.307,247.448 311.480,248.332 312.605 C 249.182 313.685,251.200 313.459,251.200 312.285 C 251.200 310.295,246.963 308.663,244.590 309.737 M331.390 309.737 C 328.056 311.249,328.214 322.598,331.589 323.995 C 335.695 325.696,338.148 323.487,338.340 317.914 C 338.593 310.567,336.079 307.609,331.390 309.737 M51.600 315.420 C 51.600 323.314,52.625 324.904,57.308 324.276 C 60.564 323.840,60.981 322.913,61.128 315.792 L 61.256 309.600 59.828 309.600 L 58.400 309.600 58.400 315.138 C 58.400 320.969,58.084 322.000,56.297 322.000 C 54.681 322.000,54.400 320.988,54.400 315.171 L 54.400 309.600 53.000 309.600 L 51.600 309.600 51.600 315.420 M65.200 316.800 L 65.200 324.000 68.800 324.000 L 72.400 324.000 72.400 322.800 C 72.400 321.612,72.378 321.600,70.200 321.600 L 68.000 321.600 68.000 315.600 L 68.000 309.600 66.600 309.600 L 65.200 309.600 65.200 316.800 M89.280 316.500 C 87.263 324.698,87.296 324.080,88.877 323.925 C 89.940 323.821,90.210 323.583,90.488 322.500 C 91.024 320.417,94.632 320.497,95.026 322.600 C 95.267 323.884,95.405 324.000,96.691 324.000 C 97.948 324.000,98.069 323.907,97.858 323.100 C 97.728 322.605,96.955 319.365,96.139 315.900 L 94.656 309.600 92.817 309.600 L 90.977 309.600 89.280 316.500 M101.200 316.800 L 101.200 324.000 102.587 324.000 L 103.974 324.000 104.087 319.534 L 104.200 315.068 106.173 319.534 C 108.114 323.929,108.166 324.000,109.473 324.000 L 110.800 324.000 110.800 316.800 L 110.800 309.600 109.600 309.600 L 108.400 309.600 108.366 313.700 L 108.331 317.800 106.375 313.700 L 104.419 309.600 102.809 309.600 L 101.200 309.600 101.200 316.800 M121.600 316.800 L 121.600 324.000 122.787 324.000 L 123.974 324.000 124.087 319.500 L 124.200 315.000 126.200 319.491 L 128.200 323.981 129.700 323.991 L 131.200 324.000 131.200 316.800 L 131.200 309.600 129.814 309.600 L 128.428 309.600 128.314 313.672 L 128.200 317.744 126.410 313.672 L 124.620 309.600 123.110 309.600 L 121.600 309.600 121.600 316.800 M137.801 310.100 C 137.564 310.781,134.400 323.509,134.400 323.782 C 134.400 324.945,137.141 323.838,137.377 322.580 L 137.644 321.160 139.698 321.280 C 141.644 321.394,141.770 321.469,142.088 322.700 C 142.371 323.800,142.606 324.000,143.611 324.000 C 145.092 324.000,145.116 324.415,143.166 316.355 L 141.532 309.600 139.753 309.600 C 138.690 309.600,137.905 309.801,137.801 310.100 M146.400 310.800 C 146.400 311.933,146.489 312.000,148.000 312.000 L 149.600 312.000 149.600 318.000 L 149.600 324.000 151.000 324.000 L 152.400 324.000 152.400 318.000 L 152.400 312.000 154.000 312.000 C 155.511 312.000,155.600 311.933,155.600 310.800 L 155.600 309.600 151.000 309.600 L 146.400 309.600 146.400 310.800 M159.200 316.800 L 159.200 324.000 160.600 324.000 L 162.000 324.000 162.000 316.800 L 162.000 309.600 160.600 309.600 L 159.200 309.600 159.200 316.800 M178.800 316.800 L 178.800 324.000 179.987 324.000 L 181.174 324.000 181.287 319.505 L 181.400 315.010 183.396 319.505 C 185.349 323.905,185.419 324.000,186.696 324.000 L 188.000 324.000 188.000 316.800 L 188.000 309.600 186.814 309.600 L 185.628 309.600 185.514 313.700 L 185.400 317.800 183.600 313.709 L 181.800 309.618 180.300 309.609 L 178.800 309.600 178.800 316.800 M193.470 315.900 C 192.653 319.365,191.877 322.605,191.745 323.100 C 191.531 323.908,191.651 324.000,192.909 324.000 C 194.195 324.000,194.333 323.884,194.574 322.600 C 194.968 320.497,198.576 320.417,199.112 322.500 C 199.390 323.583,199.660 323.821,200.723 323.925 C 202.294 324.080,202.327 324.729,200.350 316.500 L 198.692 309.600 196.824 309.600 L 194.955 309.600 193.470 315.900 M205.200 316.800 L 205.200 324.000 209.000 324.000 L 212.800 324.000 212.800 322.800 L 212.800 321.600 210.400 321.600 L 208.000 321.600 208.000 315.600 L 208.000 309.600 206.600 309.600 L 205.200 309.600 205.200 316.800 M222.400 316.800 L 222.400 324.000 223.800 324.000 L 225.200 324.000 225.200 316.800 L 225.200 309.600 223.800 309.600 L 222.400 309.600 222.400 316.800 M229.200 316.800 L 229.200 324.000 230.387 324.000 L 231.574 324.000 231.687 319.505 L 231.800 315.010 233.796 319.505 C 235.749 323.905,235.819 324.000,237.096 324.000 L 238.400 324.000 238.400 316.800 L 238.400 309.600 237.200 309.600 L 236.000 309.600 235.988 313.900 L 235.975 318.200 234.088 313.908 L 232.200 309.615 230.700 309.608 L 229.200 309.600 229.200 316.800 M254.400 310.800 C 254.400 311.956,254.467 312.000,256.200 312.000 L 258.000 312.000 258.000 318.000 L 258.000 324.000 259.400 324.000 L 260.800 324.000 260.800 318.000 L 260.800 312.000 262.400 312.000 C 263.911 312.000,264.000 311.933,264.000 310.800 L 264.000 309.600 259.200 309.600 L 254.400 309.600 254.400 310.800 M267.200 316.800 L 267.200 324.000 268.600 324.000 L 270.000 324.000 270.000 316.800 L 270.000 309.600 268.600 309.600 L 267.200 309.600 267.200 316.800 M273.200 310.800 C 273.200 311.956,273.267 312.000,275.000 312.000 L 276.800 312.000 276.800 318.000 L 276.800 324.000 278.200 324.000 L 279.600 324.000 279.600 318.000 L 279.600 312.000 281.200 312.000 C 282.711 312.000,282.800 311.933,282.800 310.800 L 282.800 309.600 278.000 309.600 L 273.200 309.600 273.200 310.800 M286.000 315.594 L 286.000 321.587 287.167 322.894 C 288.807 324.729,292.548 324.834,294.291 323.092 C 295.394 321.990,295.401 321.952,295.528 315.792 L 295.656 309.600 294.228 309.600 L 292.800 309.600 292.800 315.171 C 292.800 321.068,292.527 322.000,290.800 322.000 C 289.073 322.000,288.800 321.068,288.800 315.171 L 288.800 309.600 287.400 309.600 L 286.000 309.600 286.000 315.594 M298.800 310.800 C 298.800 311.933,298.889 312.000,300.400 312.000 L 302.000 312.000 302.000 318.000 L 302.000 324.000 303.400 324.000 L 304.800 324.000 304.800 318.000 L 304.800 312.000 306.600 312.000 C 308.333 312.000,308.400 311.956,308.400 310.800 L 308.400 309.600 303.600 309.600 L 298.800 309.600 298.800 310.800 M311.600 316.800 L 311.600 324.000 315.400 324.000 L 319.200 324.000 319.200 322.800 L 319.200 321.600 316.800 321.600 L 314.400 321.600 314.400 319.800 L 314.400 318.000 316.200 318.000 C 317.990 318.000,318.000 317.993,318.000 316.600 C 318.000 315.207,317.990 315.200,316.200 315.200 L 314.400 315.200 314.400 313.600 L 314.400 312.000 316.800 312.000 L 319.200 312.000 319.200 310.800 L 319.200 309.600 315.400 309.600 L 311.600 309.600 311.600 316.800 M342.000 316.800 L 342.000 324.000 343.400 324.000 L 344.800 324.000 344.800 321.000 L 344.800 318.000 346.600 318.000 C 348.390 318.000,348.400 317.993,348.400 316.600 C 348.400 315.207,348.390 315.200,346.600 315.200 L 344.800 315.200 344.800 313.600 L 344.800 312.000 347.000 312.000 C 349.178 312.000,349.200 311.988,349.200 310.800 L 349.200 309.600 345.600 309.600 L 342.000 309.600 342.000 316.800 M171.226 312.014 C 173.190 313.065,172.142 322.000,170.055 322.000 C 168.818 322.000,168.400 320.701,168.406 316.871 C 168.413 312.503,168.572 312.070,170.326 311.632 C 170.396 311.614,170.801 311.786,171.226 312.014 M335.294 312.554 C 336.636 314.591,335.348 322.000,333.651 322.000 C 331.869 322.000,331.011 313.011,332.700 312.035 C 333.474 311.588,334.837 311.861,335.294 312.554 M93.382 315.096 C 93.532 315.923,93.752 317.005,93.871 317.500 C 94.060 318.287,93.930 318.400,92.843 318.400 C 91.426 318.400,91.449 318.486,92.053 315.476 C 92.558 312.962,92.974 312.843,93.382 315.096 M140.792 317.700 C 140.798 318.218,140.477 318.400,139.557 318.400 C 138.188 318.400,138.200 318.564,139.280 314.600 L 139.716 313.000 140.250 315.000 C 140.544 316.100,140.788 317.315,140.792 317.700 M197.983 317.900 C 197.993 318.193,197.502 318.400,196.800 318.400 C 195.452 318.400,195.472 318.461,196.020 316.000 C 196.692 312.983,196.869 312.883,197.432 315.200 C 197.726 316.410,197.974 317.625,197.983 317.900 M78.263 334.053 C 75.419 335.706,76.161 339.259,79.830 341.559 C 81.254 342.452,82.533 343.481,82.673 343.846 C 83.391 345.718,80.509 346.749,79.379 345.024 C 78.198 343.222,75.646 343.754,76.602 345.604 C 78.958 350.161,85.600 348.998,85.600 344.028 C 85.600 342.544,84.362 341.038,82.071 339.736 C 79.235 338.125,78.727 337.330,79.829 336.229 C 80.684 335.373,81.069 335.433,82.239 336.602 C 83.397 337.760,85.200 337.632,85.200 336.392 C 85.200 334.334,80.504 332.750,78.263 334.053 M90.522 334.565 L 89.400 335.531 89.400 341.000 L 89.400 346.469 90.522 347.435 C 92.670 349.282,96.828 348.587,97.819 346.215 C 98.851 343.746,98.624 342.800,97.000 342.800 C 95.733 342.800,95.600 342.907,95.600 343.920 C 95.600 345.252,94.953 346.000,93.800 346.000 C 92.271 346.000,92.000 345.247,92.000 341.000 C 92.000 336.753,92.271 336.000,93.800 336.000 C 94.830 336.000,95.600 336.718,95.600 337.680 C 95.600 338.236,95.919 338.400,97.000 338.400 C 98.611 338.400,98.837 337.605,97.796 335.592 C 96.619 333.317,92.628 332.754,90.522 334.565 M102.000 341.000 L 102.000 348.400 103.400 348.400 L 104.800 348.400 104.800 341.000 L 104.800 333.600 103.400 333.600 L 102.000 333.600 102.000 341.000 M108.800 341.014 L 108.800 348.429 112.700 348.314 L 116.600 348.200 116.727 347.100 L 116.853 346.000 114.227 346.000 L 111.600 346.000 111.600 344.000 L 111.600 342.000 113.400 342.000 C 115.133 342.000,115.200 341.956,115.200 340.800 C 115.200 339.644,115.133 339.600,113.400 339.600 L 111.600 339.600 111.600 337.800 L 111.600 336.000 114.000 336.000 L 116.400 336.000 116.400 334.800 L 116.400 333.600 112.600 333.600 L 108.800 333.600 108.800 341.014 M120.400 341.000 L 120.400 348.400 121.587 348.400 L 122.775 348.400 122.887 343.719 L 123.000 339.038 125.052 343.619 C 127.081 348.148,127.120 348.200,128.452 348.200 L 129.800 348.200 129.909 340.900 L 130.018 333.600 128.623 333.600 L 127.228 333.600 127.114 337.700 L 127.000 341.800 125.200 337.709 L 123.400 333.618 121.900 333.609 L 120.400 333.600 120.400 341.000 M134.922 334.564 C 133.489 335.796,132.976 344.034,134.187 346.374 C 135.612 349.130,140.767 349.171,142.181 346.437 C 143.333 344.209,143.030 342.800,141.400 342.800 C 140.133 342.800,140.000 342.907,140.000 343.920 C 140.000 345.252,139.353 346.000,138.200 346.000 C 136.671 346.000,136.400 345.247,136.400 341.000 C 136.400 336.753,136.671 336.000,138.200 336.000 C 139.230 336.000,140.000 336.718,140.000 337.680 C 140.000 338.241,140.320 338.400,141.452 338.400 L 142.905 338.400 142.666 336.900 C 142.155 333.694,137.551 332.305,134.922 334.564 M146.400 341.014 L 146.400 348.429 150.300 348.314 L 154.200 348.200 154.327 347.100 L 154.453 346.000 151.827 346.000 L 149.200 346.000 149.200 344.000 L 149.200 342.000 151.000 342.000 C 152.733 342.000,152.800 341.956,152.800 340.800 C 152.800 339.644,152.733 339.600,151.000 339.600 L 149.200 339.600 149.200 337.800 L 149.200 336.000 151.600 336.000 L 154.000 336.000 154.000 334.800 L 154.000 333.600 150.200 333.600 L 146.400 333.600 146.400 341.014 M165.238 340.280 C 164.320 343.976,163.473 347.315,163.357 347.700 C 163.184 348.273,163.399 348.400,164.533 348.400 C 165.807 348.400,165.949 348.277,166.273 346.900 C 166.619 345.431,166.668 345.398,168.675 345.280 L 170.723 345.161 170.997 346.780 C 171.254 348.305,171.351 348.400,172.643 348.400 C 173.862 348.400,173.992 348.299,173.805 347.500 C 173.689 347.005,172.904 343.720,172.061 340.200 L 170.529 333.800 168.719 333.680 L 166.909 333.561 165.238 340.280 M177.200 341.025 L 177.200 348.451 178.500 348.325 L 179.800 348.200 180.000 343.831 L 180.200 339.462 182.173 343.931 C 184.114 348.329,184.166 348.400,185.473 348.400 L 186.800 348.400 186.800 341.000 L 186.800 333.600 185.600 333.600 L 184.400 333.600 184.367 337.900 L 184.334 342.200 182.303 337.900 L 180.273 333.600 178.736 333.600 L 177.200 333.600 177.200 341.025 M190.800 340.958 L 190.800 348.400 193.213 348.400 C 198.527 348.400,199.600 347.143,199.600 340.917 C 199.600 334.773,198.918 333.884,194.037 333.662 L 190.800 333.515 190.800 340.958 M208.000 334.800 C 208.000 335.932,208.090 336.000,209.590 336.000 L 211.179 336.000 211.290 342.100 L 211.400 348.200 212.689 348.325 L 213.979 348.449 214.089 342.325 L 214.200 336.200 215.900 336.077 C 217.487 335.962,217.600 335.876,217.600 334.777 L 217.600 333.600 212.800 333.600 L 208.000 333.600 208.000 334.800 M220.800 341.000 L 220.800 348.400 224.600 348.400 L 228.400 348.400 228.400 347.200 L 228.400 346.000 226.000 346.000 L 223.600 346.000 223.600 344.000 L 223.600 342.000 225.400 342.000 C 227.133 342.000,227.200 341.956,227.200 340.800 C 227.200 339.644,227.133 339.600,225.400 339.600 L 223.600 339.600 223.600 337.800 L 223.600 336.000 226.000 336.000 L 228.400 336.000 228.400 334.800 L 228.400 333.600 224.600 333.600 L 220.800 333.600 220.800 341.000 M233.169 334.769 C 232.000 335.938,232.000 335.939,232.000 341.000 C 232.000 347.895,234.474 350.244,239.176 347.812 C 241.494 346.614,241.968 342.800,239.800 342.800 C 238.533 342.800,238.400 342.907,238.400 343.920 C 238.400 345.252,237.753 346.000,236.600 346.000 C 234.976 346.000,233.909 339.586,235.043 336.633 C 235.577 335.239,238.400 336.120,238.400 337.680 C 238.400 338.236,238.719 338.400,239.800 338.400 C 241.389 338.400,241.530 337.964,240.634 335.819 C 239.547 333.218,235.316 332.623,233.169 334.769 M244.800 341.000 L 244.800 348.400 246.200 348.400 L 247.600 348.400 247.600 345.200 L 247.600 342.000 249.600 342.000 L 251.600 342.000 251.600 345.200 L 251.600 348.400 253.000 348.400 L 254.400 348.400 254.400 341.000 L 254.400 333.600 253.000 333.600 L 251.600 333.600 251.600 336.600 L 251.600 339.600 249.600 339.600 L 247.600 339.600 247.600 336.600 L 247.600 333.600 246.200 333.600 L 244.800 333.600 244.800 341.000 M258.400 341.000 L 258.400 348.400 259.600 348.400 L 260.800 348.400 260.800 343.720 C 260.800 338.356,260.797 338.355,263.379 344.100 C 265.281 348.330,265.334 348.400,266.656 348.400 L 268.000 348.400 268.000 341.000 L 268.000 333.600 266.614 333.600 L 265.228 333.600 265.114 337.627 L 265.000 341.654 263.230 337.627 L 261.459 333.600 259.930 333.600 L 258.400 333.600 258.400 341.000 M273.463 334.053 C 270.735 335.639,270.860 346.383,273.624 347.812 C 278.326 350.244,280.800 347.895,280.800 341.000 C 280.800 335.939,280.800 335.938,279.631 334.769 C 278.365 333.504,275.066 333.121,273.463 334.053 M284.491 340.900 L 284.600 348.200 288.300 348.315 L 292.000 348.430 292.000 347.235 C 292.000 346.061,291.960 346.038,289.700 345.920 L 287.400 345.800 287.290 339.700 L 287.179 333.600 285.781 333.600 L 284.382 333.600 284.491 340.900 M296.214 334.550 C 294.136 336.627,294.222 345.370,296.338 347.261 C 298.187 348.913,301.162 348.899,302.831 347.231 C 304.000 346.062,304.000 346.061,304.000 341.000 C 304.000 335.939,304.000 335.938,302.831 334.769 C 301.239 333.178,297.703 333.061,296.214 334.550 M309.500 334.032 C 306.619 335.710,306.865 346.884,309.807 348.003 C 311.369 348.596,313.245 348.483,314.060 347.746 C 314.730 347.140,314.802 347.140,315.034 347.746 C 315.897 349.993,316.800 348.384,316.800 344.600 L 316.800 340.800 314.400 340.800 L 312.000 340.800 312.000 342.000 C 312.000 343.013,312.156 343.200,313.000 343.200 C 314.086 343.200,314.291 343.909,313.586 345.226 C 313.123 346.091,311.615 346.255,310.880 345.520 C 310.570 345.210,310.400 343.609,310.400 341.000 C 310.400 336.685,310.662 336.000,312.315 336.000 C 313.008 336.000,313.393 336.328,313.722 337.200 C 314.234 338.556,316.800 339.046,316.800 337.787 C 316.800 334.524,312.475 332.299,309.500 334.032 M320.653 336.700 C 321.441 338.405,322.336 340.379,322.643 341.087 C 322.956 341.810,323.200 343.695,323.200 345.387 L 323.200 348.400 324.600 348.400 L 326.000 348.400 326.000 345.422 C 326.000 342.846,326.195 342.023,327.443 339.322 C 328.236 337.605,329.139 335.615,329.448 334.900 L 330.011 333.600 328.492 333.600 C 326.986 333.600,326.964 333.623,325.986 336.238 C 324.700 339.679,324.660 339.682,323.373 336.401 C 322.279 333.614,322.266 333.600,320.747 333.600 L 319.220 333.600 320.653 336.700 M196.069 336.662 C 196.676 337.212,196.800 337.947,196.800 341.013 C 196.800 344.951,196.636 345.325,194.698 345.811 L 193.600 346.087 193.600 341.043 C 193.600 335.580,194.030 334.817,196.069 336.662 M277.757 336.633 C 278.215 337.825,278.023 345.017,277.520 345.520 C 276.785 346.255,275.277 346.091,274.814 345.226 C 274.226 344.127,274.279 337.081,274.880 336.480 C 275.575 335.785,277.470 335.885,277.757 336.633 M301.114 340.542 C 301.236 345.209,300.983 346.000,299.365 346.000 C 297.997 346.000,297.600 344.875,297.600 341.000 C 297.600 336.784,297.979 335.907,299.727 336.077 L 301.000 336.200 301.114 340.542 M169.780 341.509 C 170.060 342.782,170.043 342.800,168.589 342.800 C 167.574 342.800,167.174 342.644,167.306 342.300 C 167.412 342.025,167.739 340.723,168.033 339.407 L 168.569 337.014 169.033 338.616 C 169.288 339.497,169.624 340.798,169.780 341.509 M149.751 363.354 C 147.018 364.589,146.202 367.600,148.600 367.600 C 149.725 367.600,150.000 367.446,150.000 366.814 C 150.000 364.976,153.376 364.768,153.830 366.577 C 154.229 368.165,153.676 369.116,150.362 372.537 C 147.973 375.004,147.201 376.068,147.201 376.900 L 147.200 378.000 151.800 378.000 L 156.400 378.000 156.400 376.800 L 156.400 375.600 153.545 375.600 L 150.690 375.600 153.318 373.036 C 158.994 367.498,156.365 360.365,149.751 363.354 M182.130 363.384 C 177.085 365.578,178.367 377.689,183.709 378.291 C 187.888 378.762,189.400 376.718,189.400 370.600 C 189.400 363.931,186.801 361.352,182.130 363.384 M214.400 363.501 C 209.524 365.936,210.754 377.587,215.961 378.286 C 220.233 378.859,221.600 377.004,221.600 370.635 C 221.600 363.651,219.086 361.160,214.400 363.501 M244.000 364.400 L 244.000 365.600 247.208 365.600 L 250.415 365.600 250.143 366.700 C 249.993 367.305,249.102 370.095,248.163 372.900 L 246.456 378.000 247.959 378.000 L 249.463 378.000 251.532 371.003 C 252.669 367.155,253.600 363.825,253.600 363.603 C 253.600 363.355,251.757 363.200,248.800 363.200 L 244.000 363.200 244.000 364.400 M185.824 365.767 C 186.480 366.247,186.618 366.914,186.714 370.067 C 186.854 374.684,186.404 375.800,184.400 375.800 C 182.396 375.800,181.946 374.684,182.086 370.067 C 182.205 366.176,182.669 365.200,184.400 365.200 C 184.756 365.200,185.396 365.455,185.824 365.767 M218.224 365.768 C 219.212 366.491,219.396 374.200,218.451 375.339 C 216.385 377.828,214.400 375.462,214.400 370.511 C 214.400 365.723,215.795 363.992,218.224 365.768 " stroke="none" fill="#42bec0" fill-rule="evenodd"></path><path id="path2" d="M0.000 200.000 L 0.000 400.000 200.000 400.000 L 400.000 400.000 400.000 200.000 L 400.000 0.000 200.000 0.000 L 0.000 0.000 0.000 200.000 M205.017 27.546 L 206.531 31.892 210.566 29.952 C 212.784 28.885,214.726 28.009,214.881 28.006 C 215.035 28.003,214.279 29.889,213.201 32.197 C 210.952 37.015,210.713 36.467,215.800 38.152 C 220.613 39.747,220.615 39.714,215.641 41.450 C 213.197 42.302,211.271 43.180,211.361 43.400 C 211.451 43.620,212.346 45.555,213.349 47.700 C 214.353 49.845,215.097 51.600,215.003 51.600 C 214.910 51.600,212.960 50.723,210.672 49.652 L 206.510 47.704 204.982 52.052 C 203.122 57.343,203.331 57.344,201.476 52.032 L 199.953 47.668 195.876 49.628 C 193.634 50.706,191.663 51.591,191.496 51.594 C 191.329 51.597,192.094 49.803,193.196 47.607 C 194.298 45.411,195.200 43.476,195.200 43.307 C 195.200 43.138,193.220 42.304,190.800 41.454 C 188.380 40.604,186.400 39.859,186.400 39.798 C 186.400 39.737,188.335 39.007,190.700 38.175 C 193.065 37.343,195.080 36.598,195.178 36.520 C 195.276 36.441,194.476 34.587,193.400 32.400 C 191.008 27.538,191.034 27.507,195.602 29.801 C 200.130 32.075,199.905 32.171,201.603 27.250 C 203.318 22.279,203.178 22.267,205.017 27.546 M210.800 145.200 L 210.800 226.800 203.400 226.800 L 196.000 226.800 196.000 145.200 L 196.000 63.600 203.400 63.600 L 210.800 63.600 210.800 145.200 M45.200 265.600 L 45.200 294.800 41.507 294.800 L 37.814 294.800 33.907 290.908 L 30.000 287.015 30.000 261.708 L 30.000 236.400 37.600 236.400 L 45.200 236.400 45.200 265.600 M100.303 265.700 L 100.405 294.800 74.803 294.800 L 49.200 294.800 49.200 287.400 L 49.200 280.000 67.200 280.000 L 85.200 280.000 85.200 258.191 L 85.200 236.382 92.700 236.491 L 100.200 236.600 100.303 265.700 M164.000 244.000 L 164.000 251.600 146.000 251.600 L 128.000 251.600 128.000 273.200 L 128.000 294.800 120.400 294.800 L 112.800 294.800 112.800 265.867 C 112.800 249.953,112.920 236.813,113.067 236.667 C 113.213 236.520,124.733 236.400,138.667 236.400 L 164.000 236.400 164.000 244.000 M179.093 240.493 L 183.200 244.586 183.200 269.693 L 183.200 294.800 175.600 294.800 L 168.000 294.800 168.000 265.867 C 168.000 249.953,168.120 236.813,168.267 236.667 C 168.413 236.520,169.985 236.400,171.760 236.400 L 174.986 236.400 179.093 240.493 M210.800 244.000 L 210.800 251.600 203.400 251.600 L 196.000 251.600 196.000 244.000 L 196.000 236.400 203.400 236.400 L 210.800 236.400 210.800 244.000 M291.200 244.000 L 291.200 251.600 265.000 251.600 L 238.800 251.600 238.800 255.000 L 238.800 258.400 265.000 258.400 L 291.200 258.400 291.200 276.600 L 291.200 294.800 257.400 294.800 L 223.600 294.800 223.600 287.400 L 223.600 280.000 250.000 280.000 L 276.400 280.000 276.400 276.600 L 276.400 273.200 250.000 273.200 L 223.600 273.200 223.600 255.067 C 223.600 245.093,223.720 236.813,223.867 236.667 C 224.013 236.520,239.223 236.400,257.667 236.400 L 291.200 236.400 291.200 244.000 M319.000 244.000 L 319.000 251.400 311.500 251.509 L 304.000 251.618 304.000 244.000 L 304.000 236.382 311.500 236.491 L 319.000 236.600 319.000 244.000 M371.600 244.000 L 371.600 251.600 354.800 251.600 L 338.000 251.600 338.000 273.200 L 338.000 294.800 330.600 294.800 L 323.200 294.800 323.200 265.600 L 323.200 236.400 347.400 236.400 L 371.600 236.400 371.600 244.000 M210.800 275.200 L 210.800 294.800 203.400 294.800 L 196.000 294.800 196.000 275.200 L 196.000 255.600 203.400 255.600 L 210.800 255.600 210.800 275.200 M54.400 314.626 C 54.400 320.701,54.661 321.600,56.424 321.600 C 58.108 321.600,58.400 320.533,58.400 314.374 L 58.400 309.200 59.800 309.200 L 61.200 309.200 61.200 315.181 C 61.200 318.966,61.025 321.547,60.722 322.211 C 59.603 324.667,54.819 325.281,52.769 323.231 L 51.600 322.062 51.600 315.631 L 51.600 309.200 53.000 309.200 L 54.400 309.200 54.400 314.626 M68.000 315.400 L 68.000 321.600 70.200 321.600 L 72.400 321.600 72.400 323.015 L 72.400 324.430 68.700 324.315 L 65.000 324.200 64.890 317.214 C 64.763 309.098,64.741 309.200,66.587 309.200 L 68.000 309.200 68.000 315.400 M82.126 309.647 C 83.261 310.227,84.380 311.621,84.391 312.468 C 84.402 313.269,81.926 313.977,81.681 313.243 C 81.205 311.815,80.089 311.355,79.011 312.142 C 77.944 312.923,78.446 313.783,80.886 315.348 C 86.415 318.895,85.848 324.400,79.954 324.400 C 76.739 324.400,73.481 320.554,76.100 319.852 C 77.570 319.458,77.932 319.557,78.208 320.424 C 78.605 321.677,80.267 322.305,81.067 321.505 C 82.080 320.491,81.453 319.086,79.513 318.024 C 76.443 316.343,75.600 315.295,75.600 313.161 C 75.600 309.978,79.095 308.097,82.126 309.647 M96.336 316.100 C 98.388 324.556,98.385 324.488,96.700 324.325 C 95.567 324.216,95.352 324.007,95.029 322.700 C 94.668 321.235,94.616 321.200,92.800 321.200 C 90.984 321.200,90.932 321.235,90.571 322.700 C 90.240 324.039,87.200 325.407,87.200 324.217 C 87.200 324.089,88.032 320.659,89.050 316.593 L 90.899 309.200 92.780 309.200 L 94.661 309.200 96.336 316.100 M106.224 313.110 C 107.138 315.150,108.002 316.935,108.143 317.077 C 108.284 317.218,108.400 315.492,108.400 313.241 L 108.400 309.149 109.700 309.275 L 111.000 309.400 111.000 316.800 L 111.000 324.200 109.579 324.319 L 108.158 324.439 106.179 319.919 L 104.200 315.400 104.087 319.900 L 103.974 324.400 102.587 324.400 L 101.200 324.400 101.200 316.777 L 101.200 309.154 102.881 309.277 L 104.562 309.400 106.224 313.110 M126.402 313.300 L 128.350 317.400 128.375 313.300 L 128.400 309.200 129.800 309.200 L 131.200 309.200 131.200 316.800 L 131.200 324.400 129.784 324.400 C 128.373 324.400,128.358 324.381,126.217 319.900 L 124.066 315.400 124.033 319.925 L 124.000 324.451 122.700 324.325 L 121.400 324.200 121.290 317.214 C 121.162 309.083,121.137 309.200,123.014 309.200 C 124.446 309.200,124.463 309.221,126.402 313.300 M141.752 309.900 C 142.038 310.874,145.200 324.050,145.200 324.270 C 145.200 325.440,142.178 323.999,141.868 322.680 C 141.325 320.367,138.030 320.532,137.473 322.900 C 137.104 324.470,134.400 325.303,134.400 323.847 C 134.400 323.142,137.562 309.985,137.840 309.536 C 138.263 308.851,141.533 309.155,141.752 309.900 M155.925 310.700 C 156.050 311.995,156.044 312.000,154.225 312.000 L 152.400 312.000 152.400 318.200 L 152.400 324.400 151.000 324.400 L 149.600 324.400 149.600 318.200 L 149.600 312.000 148.000 312.000 C 146.435 312.000,146.400 311.969,146.400 310.587 L 146.400 309.175 151.100 309.287 L 155.800 309.400 155.925 310.700 M162.000 316.824 L 162.000 324.448 160.500 324.324 L 159.000 324.200 158.890 317.214 C 158.763 309.098,158.741 309.200,160.587 309.200 L 162.000 309.200 162.000 316.824 M173.868 310.561 C 174.741 311.576,174.800 311.975,174.800 316.853 L 174.800 322.062 173.631 323.231 C 171.584 325.278,167.451 324.820,166.204 322.408 C 165.410 320.873,165.377 312.654,166.158 311.244 C 167.464 308.888,172.077 308.479,173.868 310.561 M183.683 313.600 L 185.592 317.800 185.596 313.475 L 185.600 309.149 186.900 309.275 L 188.200 309.400 188.200 316.800 L 188.200 324.200 186.844 324.200 C 185.307 324.200,185.442 324.377,183.034 319.200 L 181.266 315.400 181.233 319.925 L 181.200 324.451 179.900 324.325 L 178.600 324.200 178.490 317.214 C 178.361 308.990,178.333 309.113,180.284 309.276 C 181.761 309.399,181.790 309.437,183.683 313.600 M200.339 315.900 C 202.505 324.930,202.463 324.200,200.815 324.200 C 199.541 324.200,199.401 324.078,199.071 322.680 C 198.543 320.451,195.356 320.536,194.600 322.800 C 194.279 323.760,193.851 324.241,193.237 324.332 C 191.185 324.633,191.181 324.441,193.062 316.952 C 195.181 308.519,194.835 309.200,196.990 309.200 L 198.732 309.200 200.339 315.900 M208.310 315.500 L 208.421 321.600 210.610 321.600 L 212.800 321.600 212.800 323.000 L 212.800 324.400 209.000 324.400 L 205.200 324.400 205.200 316.776 L 205.200 309.152 206.700 309.276 L 208.200 309.400 208.310 315.500 M225.200 316.824 L 225.200 324.448 223.700 324.324 L 222.200 324.200 222.090 317.214 C 221.963 309.098,221.941 309.200,223.787 309.200 L 225.200 309.200 225.200 316.824 M234.083 313.600 L 235.992 317.800 235.996 313.475 L 236.000 309.149 237.300 309.275 L 238.600 309.400 238.600 316.800 L 238.600 324.200 237.244 324.200 C 235.707 324.200,235.842 324.377,233.434 319.200 L 231.666 315.400 231.633 319.925 L 231.600 324.451 230.300 324.325 L 229.000 324.200 228.890 317.214 C 228.761 308.990,228.733 309.113,230.684 309.276 C 232.161 309.399,232.190 309.437,234.083 313.600 M248.974 309.590 C 249.997 309.979,251.716 312.289,251.383 312.827 C 250.839 313.708,249.085 313.593,248.181 312.617 C 247.084 311.434,246.689 311.369,245.829 312.228 C 244.914 313.143,245.582 314.088,248.179 315.553 C 253.419 318.511,252.489 324.400,246.782 324.400 C 244.482 324.400,240.918 321.264,242.046 320.234 C 242.925 319.432,244.829 319.626,245.255 320.562 C 246.165 322.559,248.571 322.164,248.320 320.060 C 248.232 319.318,247.624 318.713,246.025 317.777 C 239.794 314.126,242.337 307.067,248.974 309.590 M264.000 310.600 C 264.000 311.967,263.962 312.000,262.400 312.000 L 260.800 312.000 260.800 318.224 L 260.800 324.448 259.300 324.324 L 257.800 324.200 257.690 318.100 L 257.579 312.000 255.990 312.000 C 254.440 312.000,254.400 311.965,254.400 310.600 L 254.400 309.200 259.200 309.200 L 264.000 309.200 264.000 310.600 M270.000 316.800 L 270.000 324.400 268.600 324.400 L 267.200 324.400 267.200 316.800 L 267.200 309.200 268.600 309.200 L 270.000 309.200 270.000 316.800 M282.800 310.600 C 282.800 311.967,282.762 312.000,281.200 312.000 L 279.600 312.000 279.600 318.224 L 279.600 324.448 278.100 324.324 L 276.600 324.200 276.490 318.100 L 276.379 312.000 274.790 312.000 C 273.240 312.000,273.200 311.965,273.200 310.600 L 273.200 309.200 278.000 309.200 L 282.800 309.200 282.800 310.600 M288.800 314.626 C 288.800 320.680,289.064 321.600,290.800 321.600 C 292.536 321.600,292.800 320.680,292.800 314.626 L 292.800 309.200 294.200 309.200 L 295.600 309.200 295.600 315.426 C 295.600 323.551,294.881 324.705,290.067 324.306 C 286.306 323.994,286.000 323.336,286.000 315.578 L 286.000 309.200 287.400 309.200 L 288.800 309.200 288.800 314.626 M308.400 310.600 C 308.400 311.965,308.360 312.000,306.810 312.000 L 305.221 312.000 305.110 318.100 L 305.000 324.200 303.500 324.324 L 302.000 324.448 302.000 318.224 L 302.000 312.000 300.400 312.000 C 298.838 312.000,298.800 311.967,298.800 310.600 L 298.800 309.200 303.600 309.200 L 308.400 309.200 308.400 310.600 M319.200 310.600 L 319.200 312.000 316.800 312.000 L 314.400 312.000 314.400 313.600 L 314.400 315.200 316.200 315.200 C 317.990 315.200,318.000 315.207,318.000 316.600 C 318.000 317.993,317.990 318.000,316.200 318.000 L 314.400 318.000 314.400 319.800 L 314.400 321.600 317.025 321.600 L 319.651 321.600 319.525 322.900 L 319.400 324.200 315.400 324.200 L 311.400 324.200 311.290 317.214 C 311.153 308.468,310.779 309.200,315.387 309.200 L 319.200 309.200 319.200 310.600 M336.342 309.770 C 339.352 311.327,339.352 322.273,336.342 323.830 C 330.916 326.636,327.269 320.910,329.189 312.600 C 329.890 309.563,333.319 308.207,336.342 309.770 M349.200 310.600 L 349.200 312.000 347.000 312.000 L 344.800 312.000 344.800 313.600 L 344.800 315.200 346.600 315.200 C 348.390 315.200,348.400 315.207,348.400 316.600 C 348.400 317.993,348.390 318.000,346.600 318.000 L 344.800 318.000 344.800 321.200 L 344.800 324.400 343.400 324.400 L 342.000 324.400 342.000 316.800 L 342.000 309.200 345.600 309.200 L 349.200 309.200 349.200 310.600 M168.814 312.774 C 168.586 313.199,168.400 315.011,168.400 316.800 C 168.400 318.589,168.586 320.401,168.814 320.826 C 169.327 321.785,171.405 321.885,171.757 320.967 C 172.212 319.781,172.022 312.982,171.520 312.480 C 170.785 311.745,169.277 311.909,168.814 312.774 M332.243 312.633 C 332.109 312.981,332.000 314.856,332.000 316.800 C 332.000 321.123,332.162 321.600,333.629 321.600 C 335.477 321.600,336.455 316.300,335.210 313.026 C 334.753 311.824,332.660 311.547,332.243 312.633 M139.298 315.000 C 138.384 318.533,138.371 318.400,139.637 318.400 C 140.963 318.400,140.938 318.518,140.239 315.600 L 139.712 313.400 139.298 315.000 M92.268 315.160 C 92.142 315.791,91.920 316.778,91.776 317.353 C 91.533 318.320,91.612 318.400,92.799 318.400 C 93.750 318.400,94.028 318.251,93.866 317.828 C 93.746 317.514,93.526 316.612,93.378 315.824 C 93.033 313.984,92.560 313.701,92.268 315.160 M196.731 314.216 C 196.610 314.427,196.387 315.140,196.236 315.800 C 196.085 316.460,195.868 317.315,195.754 317.700 C 195.588 318.259,195.791 318.400,196.763 318.400 C 197.922 318.400,197.968 318.338,197.724 317.100 C 197.252 314.699,196.952 313.830,196.731 314.216 M82.986 333.768 C 84.121 334.243,85.994 336.607,85.529 336.978 C 84.419 337.865,82.857 337.844,82.444 336.936 C 81.847 335.625,79.866 335.734,79.674 337.088 C 79.573 337.793,80.026 338.278,81.874 339.439 C 84.933 341.364,85.580 342.215,85.591 344.331 C 85.615 348.993,78.782 350.220,76.574 345.950 C 75.846 344.541,76.058 344.198,77.900 343.810 C 78.913 343.597,79.200 343.670,79.200 344.140 C 79.200 345.768,81.648 346.605,82.384 345.229 C 83.020 344.042,82.485 343.255,80.145 341.934 C 73.840 338.376,76.400 331.017,82.986 333.768 M97.287 334.767 C 98.942 336.620,98.845 338.400,97.088 338.400 C 95.997 338.400,95.699 338.197,95.322 337.200 C 94.781 335.766,93.086 335.518,92.414 336.774 C 91.723 338.064,91.887 344.630,92.629 345.371 C 93.798 346.541,95.092 345.983,95.434 344.161 C 95.862 341.876,98.400 342.106,98.400 344.431 C 98.400 348.247,92.994 350.078,90.300 347.173 C 88.894 345.657,88.604 336.583,89.909 334.918 C 91.577 332.788,95.448 332.709,97.287 334.767 M140.584 333.819 C 141.975 334.479,142.800 335.819,142.800 337.419 C 142.800 339.013,140.341 338.838,139.722 337.200 C 139.181 335.766,137.486 335.518,136.814 336.774 C 136.123 338.064,136.287 344.630,137.029 345.371 C 138.238 346.580,140.000 345.631,140.000 343.771 C 140.000 342.928,140.184 342.800,141.400 342.800 C 144.346 342.800,142.757 347.689,139.594 348.357 C 135.111 349.304,133.600 347.499,133.600 341.197 C 133.600 333.997,135.881 331.588,140.584 333.819 M240.087 334.767 C 241.780 336.662,241.647 338.400,239.808 338.400 C 238.655 338.400,238.372 338.227,238.163 337.397 C 237.870 336.228,236.290 335.661,235.395 336.404 C 234.364 337.260,234.550 345.038,235.615 345.608 C 236.900 346.296,237.940 345.727,238.231 344.177 C 238.467 342.917,238.609 342.800,239.897 342.800 L 241.304 342.800 241.096 344.645 C 240.670 348.428,235.768 350.059,233.036 347.327 C 231.470 345.761,231.047 337.728,232.398 335.204 C 233.635 332.892,238.181 332.633,240.087 334.767 M279.400 334.163 C 282.163 335.974,281.804 346.499,278.927 348.039 C 276.632 349.267,272.767 348.218,271.982 346.153 C 271.087 343.799,271.514 336.164,272.614 334.857 C 274.092 333.100,277.280 332.774,279.400 334.163 M301.827 333.786 C 303.765 334.595,304.401 336.301,304.398 340.687 C 304.394 346.856,303.400 348.492,299.660 348.492 C 295.684 348.492,294.797 347.109,294.806 340.920 C 294.815 334.226,297.166 331.838,301.827 333.786 M315.459 334.478 C 315.990 335.009,316.535 336.121,316.669 336.949 L 316.914 338.455 315.357 338.328 C 314.095 338.224,313.776 338.030,313.672 337.301 C 313.496 336.059,311.678 335.605,310.938 336.617 C 310.127 337.726,310.198 344.541,311.029 345.371 C 311.898 346.240,312.644 346.158,313.377 345.111 C 314.272 343.834,314.147 343.200,313.000 343.200 C 312.156 343.200,312.000 343.013,312.000 342.000 L 312.000 340.800 314.400 340.800 L 316.800 340.800 316.800 344.600 C 316.800 348.323,316.068 349.727,315.014 348.023 C 314.875 347.797,314.285 347.855,313.538 348.169 C 311.884 348.865,309.665 348.349,308.500 346.999 C 307.166 345.453,307.134 336.701,308.455 335.021 C 310.107 332.921,313.630 332.648,315.459 334.478 M104.800 341.000 L 104.800 348.400 103.400 348.400 L 102.000 348.400 102.000 341.000 L 102.000 333.600 103.400 333.600 L 104.800 333.600 104.800 341.000 M116.400 335.000 L 116.400 336.400 114.000 336.400 L 111.600 336.400 111.600 337.800 C 111.600 339.193,111.610 339.200,113.400 339.200 C 115.190 339.200,115.200 339.207,115.200 340.600 C 115.200 341.993,115.190 342.000,113.400 342.000 L 111.600 342.000 111.600 343.800 L 111.600 345.600 114.200 345.600 L 116.800 345.600 116.800 347.000 L 116.800 348.400 112.800 348.400 L 108.800 348.400 108.800 341.000 L 108.800 333.600 112.600 333.600 L 116.400 333.600 116.400 335.000 M125.339 337.700 L 127.184 341.800 127.192 337.700 L 127.200 333.600 128.600 333.600 L 130.000 333.600 130.000 341.000 L 130.000 348.400 128.500 348.391 L 127.000 348.381 125.000 343.891 L 123.000 339.400 122.887 343.900 L 122.774 348.400 121.387 348.400 L 120.000 348.400 120.000 341.000 L 120.000 333.600 121.747 333.600 L 123.494 333.600 125.339 337.700 M154.000 335.000 L 154.000 336.400 151.600 336.400 L 149.200 336.400 149.200 337.778 C 149.200 339.138,149.225 339.158,151.100 339.278 C 152.922 339.395,153.005 339.454,153.125 340.700 L 153.251 342.000 151.225 342.000 L 149.200 342.000 149.200 343.800 L 149.200 345.600 151.800 345.600 L 154.400 345.600 154.400 347.000 L 154.400 348.400 150.400 348.400 L 146.400 348.400 146.400 341.000 L 146.400 333.600 150.200 333.600 L 154.000 333.600 154.000 335.000 M172.328 340.700 C 174.335 349.184,174.307 348.400,172.608 348.400 C 171.414 348.400,171.181 348.243,170.974 347.300 C 170.526 345.254,170.467 345.200,168.652 345.200 C 166.933 345.200,166.869 345.245,166.527 346.700 C 166.221 348.001,163.200 349.427,163.200 348.270 C 163.200 348.016,166.398 334.705,166.605 334.100 C 166.709 333.792,167.520 333.600,168.712 333.600 L 170.649 333.600 172.328 340.700 M182.273 337.600 L 183.985 341.400 183.993 337.500 L 184.000 333.600 185.400 333.600 L 186.800 333.600 186.800 341.024 L 186.800 348.448 185.374 348.324 C 183.978 348.203,183.909 348.113,182.074 344.023 L 180.200 339.847 180.086 344.123 L 179.973 348.400 178.586 348.400 L 177.200 348.400 177.200 340.977 L 177.200 333.554 178.881 333.677 L 180.562 333.800 182.273 337.600 M197.353 333.982 C 199.086 334.641,199.743 336.166,199.923 339.951 C 200.242 346.659,198.963 348.396,193.700 348.399 L 190.800 348.400 190.800 341.000 L 190.800 333.600 193.574 333.600 C 195.100 333.600,196.800 333.772,197.353 333.982 M217.600 335.000 C 217.600 336.367,217.562 336.400,216.000 336.400 L 214.400 336.400 214.400 342.400 L 214.400 348.400 212.800 348.400 L 211.200 348.400 211.200 342.400 L 211.200 336.400 209.600 336.400 C 208.038 336.400,208.000 336.367,208.000 335.000 L 208.000 333.600 212.800 333.600 L 217.600 333.600 217.600 335.000 M228.400 335.000 L 228.400 336.400 226.000 336.400 L 223.600 336.400 223.600 337.800 C 223.600 339.193,223.610 339.200,225.400 339.200 C 227.190 339.200,227.200 339.207,227.200 340.600 C 227.200 341.993,227.190 342.000,225.400 342.000 L 223.600 342.000 223.600 343.781 L 223.600 345.562 226.100 345.681 C 228.600 345.800,228.600 345.800,228.725 347.100 L 228.851 348.400 224.625 348.400 L 220.400 348.400 220.400 341.000 L 220.400 333.600 224.400 333.600 L 228.400 333.600 228.400 335.000 M247.600 336.400 L 247.600 339.200 249.600 339.200 L 251.600 339.200 251.600 336.400 L 251.600 333.600 253.000 333.600 L 254.400 333.600 254.400 341.000 L 254.400 348.400 253.000 348.400 L 251.600 348.400 251.600 345.200 L 251.600 342.000 249.600 342.000 L 247.600 342.000 247.600 345.200 L 247.600 348.400 246.200 348.400 L 244.800 348.400 244.800 341.000 L 244.800 333.600 246.200 333.600 L 247.600 333.600 247.600 336.400 M263.361 337.579 L 265.000 341.358 265.114 337.479 L 265.229 333.600 266.614 333.600 L 268.000 333.600 268.000 341.024 L 268.000 348.448 266.526 348.324 C 265.070 348.202,265.028 348.148,263.133 344.000 L 261.214 339.800 261.207 344.100 L 261.200 348.400 259.800 348.400 L 258.400 348.400 258.400 340.977 L 258.400 333.554 260.061 333.677 L 261.722 333.800 263.361 337.579 M287.600 339.600 L 287.600 345.600 289.800 345.600 L 292.000 345.600 292.000 347.000 L 292.000 348.400 288.200 348.400 L 284.400 348.400 284.400 341.000 L 284.400 333.600 286.000 333.600 L 287.600 333.600 287.600 339.600 M323.498 336.327 C 324.624 339.149,324.706 339.135,325.984 335.900 C 326.873 333.651,326.927 333.600,328.446 333.600 C 330.351 333.600,330.391 333.166,328.000 338.400 C 326.205 342.329,326.000 343.066,326.000 345.589 L 326.000 348.400 324.600 348.400 L 323.200 348.400 323.200 345.456 C 323.200 342.759,323.032 342.152,321.200 338.239 C 318.802 333.118,318.834 333.527,320.845 333.677 C 322.460 333.798,322.507 333.844,323.498 336.327 M275.209 336.386 C 273.863 337.237,274.199 345.355,275.599 345.800 C 277.528 346.412,278.000 345.482,278.000 341.066 C 278.000 336.243,277.297 335.065,275.209 336.386 M298.500 336.265 C 297.707 336.585,297.807 344.942,298.612 345.610 C 300.346 347.049,301.200 345.558,301.200 341.089 C 301.200 336.276,300.697 335.378,298.500 336.265 M193.600 341.000 L 193.600 345.600 194.786 345.600 C 196.397 345.600,196.800 344.680,196.800 341.000 C 196.800 337.320,196.397 336.400,194.786 336.400 L 193.600 336.400 193.600 341.000 M168.077 339.593 C 167.400 342.528,167.448 342.800,168.645 342.800 C 169.662 342.800,169.683 342.749,169.413 340.947 C 168.912 337.607,168.607 337.298,168.077 339.593 M155.667 364.345 C 157.792 366.723,157.171 369.250,153.531 373.040 L 151.073 375.600 153.962 375.600 L 156.851 375.600 156.725 376.900 L 156.600 378.200 151.800 378.200 L 147.000 378.200 146.869 377.057 C 146.759 376.089,147.252 375.389,150.115 372.457 C 153.694 368.792,154.310 367.726,153.608 366.415 C 152.792 364.891,150.000 365.560,150.000 367.280 C 150.000 367.836,149.681 368.000,148.600 368.000 C 147.285 368.000,147.201 367.921,147.209 366.700 C 147.235 362.940,152.982 361.339,155.667 364.345 M187.232 363.482 C 190.649 365.501,190.600 376.042,187.166 377.818 C 182.412 380.276,179.200 377.354,179.200 370.573 C 179.200 363.835,182.659 360.781,187.232 363.482 M220.191 363.992 C 223.148 366.769,222.580 376.478,219.376 377.938 C 216.849 379.089,213.305 378.138,212.207 376.013 C 211.470 374.589,211.366 367.590,212.052 365.622 C 213.037 362.796,217.885 361.825,220.191 363.992 M253.600 363.869 C 253.600 364.236,252.676 367.656,251.546 371.469 L 249.492 378.400 247.946 378.400 C 246.048 378.400,246.015 378.947,248.350 371.674 L 250.301 365.600 247.150 365.600 L 244.000 365.600 244.000 364.400 L 244.000 363.200 248.800 363.200 C 253.019 363.200,253.600 363.281,253.600 363.869 M183.600 365.492 C 180.713 366.591,181.826 376.532,184.753 375.797 C 186.264 375.418,186.387 375.022,186.394 370.523 C 186.401 365.872,185.738 364.678,183.600 365.492 M215.923 365.471 C 214.202 365.925,213.797 374.276,215.437 375.477 C 216.264 376.083,217.992 375.851,218.490 375.068 C 219.831 372.960,218.451 364.886,216.811 365.246 C 216.695 365.272,216.295 365.373,215.923 365.471 " stroke="none" fill="#041c54" fill-rule="evenodd"></path><path id="path3" d="M30.187 236.891 C 30.080 237.171,30.041 248.560,30.099 262.200 L 30.206 287.000 30.303 261.900 L 30.400 236.800 37.597 236.800 L 44.795 236.800 44.901 265.700 L 45.008 294.600 45.004 265.600 L 45.000 236.600 37.691 236.491 C 32.062 236.407,30.337 236.499,30.187 236.891 M89.100 236.698 C 91.135 236.771,94.465 236.771,96.500 236.698 C 98.535 236.625,96.870 236.566,92.800 236.566 C 88.730 236.566,87.065 236.625,89.100 236.698 M125.929 236.700 C 133.040 236.761,144.560 236.761,151.529 236.700 C 158.498 236.638,152.680 236.588,138.600 236.588 C 124.520 236.588,118.818 236.639,125.929 236.700 M171.600 236.696 L 175.000 236.828 178.900 240.707 L 182.800 244.585 182.897 269.792 L 182.994 295.000 183.100 269.810 L 183.206 244.620 179.110 240.510 L 175.014 236.400 171.607 236.481 L 168.200 236.563 171.600 236.696 M199.900 236.698 C 201.935 236.771,205.265 236.771,207.300 236.698 C 209.335 236.625,207.670 236.566,203.600 236.566 C 199.530 236.566,197.865 236.625,199.900 236.698 M240.730 236.700 C 250.041 236.760,265.161 236.760,274.330 236.700 C 283.498 236.640,275.880 236.591,257.400 236.591 C 238.920 236.591,231.418 236.640,240.730 236.700 M304.178 236.914 C 304.069 237.197,304.030 240.572,304.090 244.414 L 304.200 251.400 311.400 251.414 L 318.600 251.427 311.500 251.305 L 304.400 251.182 304.400 244.000 L 304.400 236.818 311.700 236.699 L 319.000 236.581 311.687 236.490 C 306.033 236.421,304.330 236.517,304.178 236.914 M347.300 236.698 L 371.200 236.806 371.200 243.999 L 371.200 251.191 354.700 251.302 L 338.200 251.413 354.800 251.407 L 371.400 251.400 371.400 244.000 L 371.400 236.600 347.400 236.595 L 323.400 236.591 347.300 236.698 M136.900 251.500 C 141.905 251.563,150.095 251.563,155.100 251.500 C 160.105 251.436,156.010 251.384,146.000 251.384 C 135.990 251.384,131.895 251.436,136.900 251.500 M199.900 251.498 C 201.935 251.571,205.265 251.571,207.300 251.498 C 209.335 251.425,207.670 251.366,203.600 251.366 C 199.530 251.366,197.865 251.425,199.900 251.498 M251.700 251.500 C 258.905 251.561,270.695 251.561,277.900 251.500 C 285.105 251.439,279.210 251.389,264.800 251.389 C 250.390 251.389,244.495 251.439,251.700 251.500 " stroke="none" fill="#848cac" fill-rule="evenodd"></path><path id="path4" d="M100.190 265.800 C 100.190 281.860,100.239 288.372,100.300 280.271 C 100.360 272.169,100.360 259.029,100.300 251.071 C 100.239 243.112,100.190 249.740,100.190 265.800 M112.990 265.800 C 112.990 281.860,113.039 288.372,113.100 280.271 C 113.160 272.169,113.160 259.029,113.100 251.071 C 113.039 243.112,112.990 249.740,112.990 265.800 M168.190 265.800 C 168.190 281.860,168.239 288.372,168.300 280.271 C 168.360 272.169,168.360 259.029,168.300 251.071 C 168.239 243.112,168.190 249.740,168.190 265.800 M223.784 255.000 C 223.784 265.120,223.836 269.203,223.900 264.073 C 223.963 258.942,223.963 250.662,223.900 245.673 C 223.836 240.683,223.784 244.880,223.784 255.000 M318.966 244.000 C 318.966 248.070,319.025 249.735,319.098 247.700 C 319.171 245.665,319.171 242.335,319.098 240.300 C 319.025 238.265,318.966 239.930,318.966 244.000 M223.767 287.400 C 223.767 291.580,223.826 293.236,223.898 291.079 C 223.971 288.923,223.970 285.503,223.898 283.479 C 223.825 281.456,223.766 283.220,223.767 287.400 M33.800 290.800 C 35.992 293.000,37.875 294.800,37.985 294.800 C 38.095 294.800,36.392 293.000,34.200 290.800 C 32.008 288.600,30.125 286.800,30.015 286.800 C 29.905 286.800,31.608 288.600,33.800 290.800 M52.305 309.483 C 52.802 309.579,53.522 309.575,53.905 309.475 C 54.287 309.375,53.880 309.296,53.000 309.301 C 52.120 309.305,51.807 309.387,52.305 309.483 M59.105 309.483 C 59.602 309.579,60.322 309.575,60.705 309.475 C 61.087 309.375,60.680 309.296,59.800 309.301 C 58.920 309.305,58.607 309.387,59.105 309.483 M64.978 309.714 C 64.869 309.997,64.830 313.372,64.890 317.214 L 65.000 324.200 68.701 324.224 L 72.402 324.248 68.801 324.109 L 65.200 323.970 65.200 316.809 L 65.200 309.648 66.700 309.491 L 68.200 309.334 66.687 309.267 C 65.771 309.226,65.097 309.402,64.978 309.714 M91.700 309.487 C 92.305 309.578,93.295 309.578,93.900 309.487 C 94.505 309.395,94.010 309.320,92.800 309.320 C 91.590 309.320,91.095 309.395,91.700 309.487 M101.400 309.403 C 102.314 309.721,104.729 309.809,104.548 309.516 C 104.441 309.342,103.598 309.214,102.676 309.232 C 101.754 309.249,101.180 309.326,101.400 309.403 M109.600 309.425 L 110.800 309.651 110.800 316.801 L 110.800 323.952 109.397 324.118 L 107.993 324.284 109.497 324.242 L 111.000 324.200 111.000 316.800 L 111.000 309.400 109.700 309.300 C 108.418 309.201,108.417 309.203,109.600 309.425 M121.378 309.714 C 121.269 309.997,121.230 313.372,121.290 317.214 L 121.400 324.200 122.600 324.237 C 123.732 324.272,123.738 324.265,122.700 324.112 L 121.600 323.949 121.600 316.799 L 121.600 309.648 123.100 309.491 L 124.600 309.334 123.087 309.267 C 122.171 309.226,121.497 309.402,121.378 309.714 M129.105 309.483 C 129.602 309.579,130.322 309.575,130.705 309.475 C 131.087 309.375,130.680 309.296,129.800 309.301 C 128.920 309.305,128.607 309.387,129.105 309.483 M137.852 309.516 C 137.744 309.690,138.318 309.770,139.128 309.693 C 141.602 309.459,141.893 309.295,139.924 309.246 C 138.892 309.221,137.959 309.342,137.852 309.516 M150.975 309.493 L 155.551 309.625 155.728 310.912 C 155.901 312.177,155.904 312.175,155.852 310.800 L 155.800 309.400 151.099 309.380 L 146.399 309.360 150.975 309.493 M158.978 309.714 C 158.869 309.997,158.830 313.372,158.890 317.214 L 159.000 324.200 160.503 324.242 L 162.007 324.284 160.603 324.118 L 159.200 323.952 159.200 316.800 L 159.200 309.648 160.700 309.491 L 162.200 309.334 160.687 309.267 C 159.771 309.226,159.097 309.402,158.978 309.714 M178.578 309.714 C 178.469 309.997,178.430 313.372,178.490 317.214 L 178.600 324.200 179.800 324.237 C 180.932 324.272,180.938 324.265,179.900 324.112 L 178.800 323.949 178.800 316.799 L 178.800 309.648 180.300 309.491 L 181.800 309.334 180.287 309.267 C 179.371 309.226,178.697 309.402,178.578 309.714 M186.800 309.425 L 188.000 309.651 188.000 316.800 L 188.000 323.949 186.700 324.127 L 185.400 324.304 186.800 324.252 L 188.200 324.200 188.200 316.800 L 188.200 309.400 186.900 309.300 C 185.618 309.201,185.617 309.203,186.800 309.425 M196.105 309.487 C 196.714 309.579,197.614 309.577,198.105 309.482 C 198.597 309.387,198.100 309.311,197.000 309.314 C 195.900 309.317,195.497 309.395,196.105 309.487 M206.490 309.476 L 207.979 309.647 208.106 315.624 L 208.232 321.601 208.216 315.500 L 208.200 309.400 206.600 309.352 L 205.000 309.305 206.490 309.476 M222.178 309.714 C 222.069 309.997,222.030 313.372,222.090 317.214 L 222.200 324.200 223.703 324.242 L 225.207 324.284 223.803 324.118 L 222.400 323.952 222.400 316.800 L 222.400 309.648 223.900 309.491 L 225.400 309.334 223.887 309.267 C 222.971 309.226,222.297 309.402,222.178 309.714 M228.978 309.714 C 228.869 309.997,228.830 313.372,228.890 317.214 L 229.000 324.200 230.200 324.237 C 231.332 324.272,231.338 324.265,230.300 324.112 L 229.200 323.949 229.200 316.799 L 229.200 309.648 230.700 309.491 L 232.200 309.334 230.687 309.267 C 229.771 309.226,229.097 309.402,228.978 309.714 M237.200 309.425 L 238.400 309.651 238.400 316.800 L 238.400 323.949 237.100 324.127 L 235.800 324.304 237.200 324.252 L 238.600 324.200 238.600 316.800 L 238.600 309.400 237.300 309.300 C 236.018 309.201,236.017 309.203,237.200 309.425 M256.700 309.496 C 258.075 309.574,260.325 309.574,261.700 309.496 C 263.075 309.418,261.950 309.354,259.200 309.354 C 256.450 309.354,255.325 309.418,256.700 309.496 M267.905 309.483 C 268.402 309.579,269.122 309.575,269.505 309.475 C 269.887 309.375,269.480 309.296,268.600 309.301 C 267.720 309.305,267.407 309.387,267.905 309.483 M275.500 309.496 C 276.875 309.574,279.125 309.574,280.500 309.496 C 281.875 309.418,280.750 309.354,278.000 309.354 C 275.250 309.354,274.125 309.418,275.500 309.496 M286.705 309.483 C 287.202 309.579,287.922 309.575,288.305 309.475 C 288.687 309.375,288.280 309.296,287.400 309.301 C 286.520 309.305,286.207 309.387,286.705 309.483 M293.505 309.483 C 294.002 309.579,294.722 309.575,295.105 309.475 C 295.487 309.375,295.080 309.296,294.200 309.301 C 293.320 309.305,293.007 309.387,293.505 309.483 M301.100 309.496 C 302.475 309.574,304.725 309.574,306.100 309.496 C 307.475 309.418,306.350 309.354,303.600 309.354 C 300.850 309.354,299.725 309.418,301.100 309.496 M311.378 309.714 C 311.269 309.997,311.230 313.372,311.290 317.214 L 311.400 324.200 315.400 324.200 L 319.400 324.200 319.452 322.800 L 319.504 321.400 319.327 322.700 L 319.149 324.000 315.375 324.000 L 311.600 324.000 311.600 316.814 L 311.600 309.629 315.500 309.498 L 319.400 309.367 315.487 309.284 C 312.607 309.222,311.523 309.336,311.378 309.714 M343.700 309.494 C 344.745 309.576,346.455 309.576,347.500 309.494 C 348.545 309.412,347.690 309.344,345.600 309.344 C 343.510 309.344,342.655 309.412,343.700 309.494 M257.784 318.100 L 257.800 324.200 259.303 324.242 L 260.807 324.284 259.414 324.118 L 258.021 323.953 257.894 317.976 L 257.768 311.999 257.784 318.100 M276.584 318.100 L 276.600 324.200 278.103 324.242 L 279.607 324.284 278.214 324.118 L 276.821 323.953 276.694 317.976 L 276.568 311.999 276.584 318.100 M304.888 317.876 L 304.800 323.952 303.300 324.109 L 301.800 324.266 303.313 324.333 C 305.258 324.419,305.246 324.463,305.100 317.582 L 304.976 311.800 304.888 317.876 M328.942 317.000 C 328.941 318.980,329.008 319.840,329.092 318.912 C 329.176 317.984,329.177 316.364,329.095 315.312 C 329.012 314.260,328.943 315.020,328.942 317.000 M87.206 323.700 C 87.200 324.438,89.732 324.758,90.155 324.072 C 90.267 323.892,89.807 323.826,89.135 323.924 C 88.364 324.037,87.782 323.900,87.562 323.552 C 87.285 323.115,87.211 323.146,87.206 323.700 M142.161 323.690 C 142.333 324.561,145.206 324.594,145.168 323.724 C 145.150 323.304,145.052 323.210,144.935 323.500 C 144.693 324.100,142.552 324.172,142.263 323.590 C 142.151 323.365,142.105 323.410,142.161 323.690 M191.552 324.112 C 191.745 324.305,192.419 324.398,193.051 324.319 C 194.109 324.187,194.081 324.159,192.700 323.968 C 191.840 323.849,191.350 323.910,191.552 324.112 M199.462 324.100 C 199.564 324.265,200.166 324.400,200.800 324.400 C 201.434 324.400,202.036 324.265,202.138 324.100 C 202.240 323.935,201.638 323.800,200.800 323.800 C 199.962 323.800,199.360 323.935,199.462 324.100 M96.100 324.276 C 96.485 324.376,97.115 324.376,97.500 324.276 C 97.885 324.175,97.570 324.093,96.800 324.093 C 96.030 324.093,95.715 324.175,96.100 324.276 M101.905 324.283 C 102.402 324.379,103.122 324.375,103.505 324.275 C 103.887 324.175,103.480 324.096,102.600 324.101 C 101.720 324.105,101.407 324.187,101.905 324.283 M129.105 324.283 C 129.602 324.379,130.322 324.375,130.705 324.275 C 131.087 324.175,130.680 324.096,129.800 324.101 C 128.920 324.105,128.607 324.187,129.105 324.283 M135.105 324.283 C 135.602 324.379,136.322 324.375,136.705 324.275 C 137.087 324.175,136.680 324.096,135.800 324.101 C 134.920 324.105,134.607 324.187,135.105 324.283 M150.305 324.283 C 150.802 324.379,151.522 324.375,151.905 324.275 C 152.287 324.175,151.880 324.096,151.000 324.101 C 150.120 324.105,149.807 324.187,150.305 324.283 M207.113 324.295 C 208.276 324.376,210.076 324.376,211.113 324.293 C 212.151 324.211,211.200 324.145,209.000 324.146 C 206.800 324.147,205.951 324.214,207.113 324.295 M267.905 324.283 C 268.402 324.379,269.122 324.375,269.505 324.275 C 269.887 324.175,269.480 324.096,268.600 324.101 C 267.720 324.105,267.407 324.187,267.905 324.283 M342.705 324.283 C 343.202 324.379,343.922 324.375,344.305 324.275 C 344.687 324.175,344.280 324.096,343.400 324.101 C 342.520 324.105,342.207 324.187,342.705 324.283 M80.100 333.476 C 80.485 333.576,81.115 333.576,81.500 333.476 C 81.885 333.375,81.570 333.293,80.800 333.293 C 80.030 333.293,79.715 333.375,80.100 333.476 M93.105 333.483 C 93.602 333.579,94.322 333.575,94.705 333.475 C 95.087 333.375,94.680 333.296,93.800 333.301 C 92.920 333.305,92.607 333.387,93.105 333.483 M137.505 333.483 C 138.002 333.579,138.722 333.575,139.105 333.475 C 139.487 333.375,139.080 333.296,138.200 333.301 C 137.320 333.305,137.007 333.387,137.505 333.483 M235.905 333.483 C 236.402 333.579,237.122 333.575,237.505 333.475 C 237.887 333.375,237.480 333.296,236.600 333.301 C 235.720 333.305,235.407 333.387,235.905 333.483 M275.700 333.476 C 276.085 333.576,276.715 333.576,277.100 333.476 C 277.485 333.375,277.170 333.293,276.400 333.293 C 275.630 333.293,275.315 333.375,275.700 333.476 M298.900 333.476 C 299.285 333.576,299.915 333.576,300.300 333.476 C 300.685 333.375,300.370 333.293,299.600 333.293 C 298.830 333.293,298.515 333.375,298.900 333.476 M311.505 333.483 C 312.002 333.579,312.722 333.575,313.105 333.475 C 313.487 333.375,313.080 333.296,312.200 333.301 C 311.320 333.305,311.007 333.387,311.505 333.483 M120.167 341.000 C 120.167 345.180,120.226 346.836,120.298 344.679 C 120.371 342.523,120.370 339.103,120.298 337.079 C 120.225 335.056,120.166 336.820,120.167 341.000 M184.150 337.800 C 184.151 340.220,184.216 341.158,184.296 339.885 C 184.376 338.612,184.375 336.632,184.294 335.485 C 184.214 334.338,184.149 335.380,184.150 337.800 M220.567 341.000 C 220.567 345.180,220.626 346.836,220.698 344.679 C 220.771 342.523,220.770 339.103,220.698 337.079 C 220.625 335.056,220.566 336.820,220.567 341.000 M287.384 339.700 L 287.400 345.800 289.702 345.833 L 292.004 345.866 289.812 345.713 L 287.621 345.561 287.494 339.580 L 287.368 333.599 287.384 339.700 M112.700 336.289 C 113.415 336.378,114.585 336.378,115.300 336.289 C 116.015 336.201,115.430 336.128,114.000 336.128 C 112.570 336.128,111.985 336.201,112.700 336.289 M150.300 336.289 C 151.015 336.378,152.185 336.378,152.900 336.289 C 153.615 336.201,153.030 336.128,151.600 336.128 C 150.170 336.128,149.585 336.201,150.300 336.289 M208.700 336.282 C 209.195 336.378,210.005 336.378,210.500 336.282 C 210.995 336.187,210.590 336.109,209.600 336.109 C 208.610 336.109,208.205 336.187,208.700 336.282 M214.176 336.518 C 214.067 336.804,214.033 339.639,214.100 342.818 L 214.224 348.600 214.312 342.523 L 214.400 336.446 216.100 336.293 L 217.800 336.140 216.087 336.070 C 214.999 336.025,214.302 336.189,214.176 336.518 M224.700 336.289 C 225.415 336.378,226.585 336.378,227.300 336.289 C 228.015 336.201,227.430 336.128,226.000 336.128 C 224.570 336.128,223.985 336.201,224.700 336.289 M304.148 340.800 C 304.148 343.110,304.214 344.055,304.295 342.900 C 304.376 341.745,304.376 339.855,304.295 338.700 C 304.214 337.545,304.148 338.490,304.148 340.800 M280.946 341.000 C 280.947 343.200,281.014 344.049,281.095 342.887 C 281.176 341.724,281.176 339.924,281.093 338.887 C 281.011 337.849,280.945 338.800,280.946 341.000 M297.746 341.000 C 297.747 343.200,297.814 344.049,297.895 342.887 C 297.976 341.724,297.976 339.924,297.893 338.887 C 297.811 337.849,297.745 338.800,297.746 341.000 M199.742 341.000 C 199.741 342.980,199.808 343.840,199.892 342.912 C 199.976 341.984,199.977 340.364,199.895 339.312 C 199.812 338.260,199.743 339.020,199.742 341.000 M231.742 341.000 C 231.741 342.980,231.808 343.840,231.892 342.912 C 231.976 341.984,231.977 340.364,231.895 339.312 C 231.812 338.260,231.743 339.020,231.742 341.000 M112.505 339.487 C 113.114 339.579,114.014 339.577,114.505 339.482 C 114.997 339.387,114.500 339.311,113.400 339.314 C 112.300 339.317,111.897 339.395,112.505 339.487 M150.876 339.480 C 152.557 339.625,152.769 339.754,152.914 340.721 C 153.060 341.700,153.071 341.688,153.037 340.600 C 153.001 339.437,152.938 339.399,151.000 339.359 L 149.000 339.318 150.876 339.480 M224.505 339.487 C 225.114 339.579,226.014 339.577,226.505 339.482 C 226.997 339.387,226.500 339.311,225.400 339.314 C 224.300 339.317,223.897 339.395,224.505 339.487 M248.500 339.487 C 249.105 339.578,250.095 339.578,250.700 339.487 C 251.305 339.395,250.810 339.320,249.600 339.320 C 248.390 339.320,247.895 339.395,248.500 339.487 M260.800 343.800 C 260.800 346.403,260.879 348.454,260.976 348.357 C 261.257 348.076,261.327 339.593,261.050 339.317 C 260.913 339.179,260.800 341.197,260.800 343.800 M112.691 345.889 C 113.401 345.977,114.661 345.979,115.491 345.892 C 116.321 345.805,115.740 345.733,114.200 345.731 C 112.660 345.729,111.981 345.800,112.691 345.889 M150.291 345.889 C 151.001 345.977,152.261 345.979,153.091 345.892 C 153.921 345.805,153.340 345.733,151.800 345.731 C 150.260 345.729,149.581 345.800,150.291 345.889 M225.876 345.885 C 228.214 346.028,228.361 346.097,228.513 347.118 C 228.660 348.104,228.671 348.094,228.637 347.000 L 228.600 345.800 226.000 345.766 L 223.400 345.733 225.876 345.885 M221.746 370.600 C 221.747 372.800,221.814 373.649,221.895 372.487 C 221.976 371.324,221.976 369.524,221.893 368.487 C 221.811 367.449,221.745 368.400,221.746 370.600 M186.542 370.600 C 186.541 372.580,186.608 373.440,186.692 372.512 C 186.776 371.584,186.777 369.964,186.695 368.912 C 186.612 367.860,186.543 368.620,186.542 370.600 M147.905 367.883 C 148.402 367.979,149.122 367.975,149.505 367.875 C 149.887 367.775,149.480 367.696,148.600 367.701 C 147.720 367.705,147.407 367.787,147.905 367.883 M218.937 370.600 C 218.939 372.360,219.009 373.030,219.093 372.089 C 219.178 371.149,219.177 369.709,219.091 368.889 C 219.005 368.070,218.936 368.840,218.937 370.600 M149.787 372.900 L 147.400 375.400 149.900 373.013 C 151.275 371.699,152.400 370.574,152.400 370.513 C 152.400 370.217,152.005 370.578,149.787 372.900 M146.900 376.900 L 147.000 378.200 151.800 378.200 L 156.600 378.200 156.652 376.800 L 156.704 375.400 156.527 376.700 L 156.349 378.000 151.800 378.000 L 147.251 378.000 147.025 376.800 C 146.803 375.617,146.801 375.618,146.900 376.900 M247.100 378.282 C 247.595 378.378,248.405 378.378,248.900 378.282 C 249.395 378.187,248.990 378.109,248.000 378.109 C 247.010 378.109,246.605 378.187,247.100 378.282 " stroke="none" fill="#44547c" fill-rule="evenodd"></path></g></svg>