<svg id="svg" version="1.1" xmlns="http://www.w3.org/2000/svg" xmlns:xlink="http://www.w3.org/1999/xlink" width="400" height="73.2" viewBox="0, 0, 400,73.2"><g id="svgg"><path id="path0" d="M1.833 32.000 C 1.833 51.444,1.890 61.333,2.000 61.333 C 2.092 61.333,2.167 61.446,2.167 61.583 C 2.167 61.721,2.245 61.833,2.341 61.833 C 2.567 61.833,3.333 62.600,3.333 62.826 C 3.333 62.922,3.414 63.000,3.512 63.000 C 3.743 63.000,4.167 63.424,4.167 63.655 C 4.167 63.753,4.245 63.833,4.341 63.833 C 4.567 63.833,5.333 64.600,5.333 64.826 C 5.333 64.922,5.414 65.000,5.512 65.000 C 5.743 65.000,6.167 65.424,6.167 65.655 C 6.167 65.753,6.245 65.833,6.341 65.833 C 6.567 65.833,7.333 66.600,7.333 66.826 C 7.333 66.922,7.414 67.000,7.512 67.000 C 7.743 67.000,8.167 67.424,8.167 67.655 C 8.167 67.753,8.245 67.833,8.341 67.833 C 8.567 67.833,9.333 68.600,9.333 68.826 C 9.333 68.922,9.414 69.000,9.512 69.000 C 9.743 69.000,10.167 69.424,10.167 69.655 C 10.167 69.753,10.263 69.833,10.380 69.833 C 10.497 69.833,10.701 69.983,10.833 70.167 C 11.166 70.628,19.890 70.693,20.066 70.236 C 20.198 69.892,20.198 3.275,20.066 2.930 C 19.975 2.694,19.012 2.667,10.899 2.667 L 1.833 2.667 1.833 32.000 M65.833 27.833 L 65.833 53.000 44.833 53.000 L 23.833 53.000 23.833 61.750 L 23.833 70.500 53.333 70.500 L 82.833 70.500 82.833 36.583 L 82.833 2.667 74.333 2.667 L 65.833 2.667 65.833 27.833 M83.110 2.779 C 82.972 2.917,82.965 69.880,83.103 70.241 C 83.158 70.383,83.344 70.500,83.518 70.500 C 83.826 70.500,83.833 69.750,83.833 36.583 C 83.833 3.806,83.823 2.667,83.528 2.667 C 83.360 2.667,83.172 2.717,83.110 2.779 M98.167 36.583 L 98.167 70.500 106.749 70.500 L 115.332 70.500 115.375 45.208 L 115.418 19.917 115.459 45.208 C 115.500 70.375,115.502 70.500,115.833 70.500 C 116.165 70.500,116.167 70.389,116.167 45.333 L 116.167 20.167 136.750 20.167 L 157.333 20.167 157.333 11.417 L 157.333 2.667 127.750 2.667 L 98.167 2.667 98.167 36.583 M157.608 2.781 C 157.279 3.110,157.506 20.167,157.839 20.167 C 158.161 20.167,158.167 20.005,158.167 11.417 C 158.167 2.567,158.146 2.243,157.608 2.781 M161.833 36.593 C 161.833 70.375,161.835 70.500,162.166 70.500 C 162.498 70.500,162.499 70.361,162.542 36.708 L 162.584 2.917 162.625 36.708 L 162.667 70.500 171.000 70.500 L 179.332 70.500 179.375 41.292 L 179.418 12.083 179.459 41.292 C 179.500 70.375,179.501 70.500,179.833 70.500 C 180.165 70.500,180.167 70.389,180.167 41.242 L 180.167 11.984 175.507 7.326 C 171.088 2.907,170.340 2.277,170.328 2.958 C 170.323 3.234,170.311 3.234,170.098 2.954 C 169.894 2.685,169.518 2.660,165.854 2.673 L 161.833 2.687 161.833 36.593 M194.167 11.417 L 194.167 20.167 194.583 20.167 L 195.000 20.167 195.000 11.417 L 195.000 2.667 194.583 2.667 L 194.167 2.667 194.167 11.417 M195.167 11.417 L 195.167 20.167 203.249 20.167 L 211.330 20.167 211.375 11.458 L 211.420 2.750 211.460 11.458 C 211.499 20.042,211.505 20.167,211.833 20.167 C 212.162 20.167,212.167 20.056,212.167 11.417 L 212.167 2.667 203.667 2.667 L 195.167 2.667 195.167 11.417 M226.667 24.000 C 226.667 45.222,226.668 45.333,227.000 45.333 C 227.332 45.333,227.333 45.222,227.333 24.000 C 227.333 2.778,227.332 2.667,227.000 2.667 C 226.668 2.667,226.667 2.778,226.667 24.000 M227.665 2.792 C 227.664 2.860,227.645 12.460,227.623 24.125 L 227.583 45.333 257.458 45.333 L 287.333 45.333 287.333 49.167 L 287.333 53.000 257.458 53.000 L 227.583 53.000 227.624 61.625 C 227.647 66.369,227.666 70.306,227.666 70.375 C 227.666 70.444,245.142 70.500,266.500 70.500 L 305.333 70.500 305.333 49.167 L 305.333 27.833 275.000 27.833 L 244.667 27.833 244.667 24.000 L 244.667 20.167 275.000 20.167 L 305.333 20.167 305.333 11.417 L 305.333 2.667 266.500 2.667 C 245.142 2.667,227.666 2.723,227.665 2.792 M319.444 2.778 C 319.306 2.917,319.296 19.542,319.434 19.903 C 319.490 20.048,319.678 20.167,319.851 20.167 C 320.157 20.167,320.167 19.891,320.167 11.417 C 320.167 2.170,320.158 2.064,319.444 2.778 M320.333 11.417 L 320.333 20.167 329.083 20.167 L 337.833 20.167 337.833 11.417 L 337.833 2.667 329.083 2.667 L 320.333 2.667 320.333 11.417 M341.833 36.583 C 341.833 70.389,341.834 70.500,342.167 70.500 C 342.499 70.500,342.500 70.389,342.500 36.583 C 342.500 2.778,342.499 2.667,342.167 2.667 C 341.834 2.667,341.833 2.778,341.833 36.583 M342.669 36.583 L 342.670 70.500 351.252 70.500 L 359.833 70.500 359.833 45.333 L 359.833 20.167 379.250 20.167 L 398.667 20.167 398.667 11.417 L 398.667 2.667 370.667 2.667 L 342.668 2.667 342.669 36.583 M194.167 47.583 L 194.167 70.500 194.583 70.500 L 195.000 70.500 195.000 47.583 L 195.000 24.667 194.583 24.667 L 194.167 24.667 194.167 47.583 M195.167 47.583 L 195.167 70.500 203.250 70.500 L 211.333 70.500 211.333 47.583 L 211.333 24.667 203.250 24.667 L 195.167 24.667 195.167 47.583 M211.500 47.583 C 211.500 70.389,211.502 70.500,211.833 70.500 C 212.165 70.500,212.167 70.389,212.167 47.583 C 212.167 24.778,212.165 24.667,211.833 24.667 C 211.502 24.667,211.500 24.778,211.500 47.583 M288.291 51.208 C 288.262 52.331,288.239 51.413,288.239 49.167 C 288.239 46.921,288.262 46.002,288.291 47.125 C 288.320 48.248,288.320 50.085,288.291 51.208 M226.667 61.750 C 226.667 70.389,226.671 70.500,227.000 70.500 C 227.329 70.500,227.333 70.389,227.333 61.750 C 227.333 53.111,227.329 53.000,227.000 53.000 C 226.671 53.000,226.667 53.111,226.667 61.750 " stroke="none" fill="#041c54" fill-rule="evenodd"></path><path id="path1" d="M82.833 36.583 C 82.833 55.237,82.890 70.500,82.958 70.500 C 83.027 70.500,83.083 55.238,83.083 36.583 C 83.083 17.929,83.027 2.667,82.958 2.667 C 82.890 2.667,82.833 17.929,82.833 36.583 M157.333 11.444 C 157.333 16.272,157.372 20.183,157.420 20.136 C 157.558 19.998,157.596 2.667,157.458 2.667 C 157.390 2.667,157.333 6.617,157.333 11.444 M195.078 11.417 C 195.078 16.275,195.099 18.238,195.125 15.780 C 195.151 13.321,195.151 9.346,195.125 6.947 C 195.099 4.547,195.078 6.558,195.078 11.417 M227.336 24.042 C 227.338 38.028,227.395 45.330,227.501 45.167 C 227.724 44.825,227.717 2.667,227.495 2.667 C 227.391 2.667,227.334 10.339,227.336 24.042 M320.244 11.417 C 320.244 16.275,320.266 18.238,320.292 15.780 C 320.318 13.321,320.318 9.346,320.292 6.947 C 320.266 4.547,320.244 6.558,320.244 11.417 M342.500 36.583 C 342.500 55.268,342.538 70.517,342.585 70.471 C 342.695 70.360,342.694 2.805,342.584 2.695 C 342.538 2.649,342.500 17.899,342.500 36.583 M211.411 11.500 C 211.411 16.313,211.432 18.281,211.458 15.875 C 211.484 13.469,211.484 9.531,211.458 7.125 C 211.432 4.719,211.411 6.688,211.411 11.500 M162.582 36.750 C 162.582 55.358,162.601 62.946,162.625 53.612 C 162.649 44.277,162.649 29.052,162.625 19.778 C 162.601 10.504,162.582 18.142,162.582 36.750 M179.415 41.333 C 179.415 57.421,179.434 64.002,179.458 55.958 C 179.482 47.915,179.482 34.752,179.458 26.708 C 179.434 18.665,179.415 25.246,179.415 41.333 M115.415 45.250 C 115.415 59.183,115.434 64.859,115.458 57.862 C 115.482 50.865,115.482 39.465,115.458 32.529 C 115.434 25.592,115.415 31.317,115.415 45.250 M195.081 47.583 C 195.081 60.233,195.101 65.433,195.125 59.138 C 195.149 52.843,195.149 42.493,195.125 36.138 C 195.101 29.783,195.081 34.933,195.081 47.583 M211.414 47.583 C 211.414 60.233,211.434 65.433,211.458 59.138 C 211.482 52.843,211.483 42.493,211.458 36.138 C 211.434 29.783,211.414 34.933,211.414 47.583 M288.239 49.167 C 288.239 51.413,288.262 52.331,288.291 51.208 C 288.320 50.085,288.320 48.248,288.291 47.125 C 288.262 46.002,288.239 46.921,288.239 49.167 M227.336 61.708 C 227.334 67.297,227.392 70.500,227.495 70.500 C 227.713 70.500,227.715 53.509,227.497 53.167 C 227.395 53.006,227.338 56.072,227.336 61.708 " stroke="none" fill="#041c5c" fill-rule="evenodd"></path><path id="path2" d="" stroke="none" fill="#081c54" fill-rule="evenodd"></path><path id="path3" d="" stroke="none" fill="#081c54" fill-rule="evenodd"></path><path id="path4" d="" stroke="none" fill="#081c54" fill-rule="evenodd"></path></g></svg>